<svg width="30" height="30" viewBox="0 0 30 30" fill="none" xmlns="http://www.w3.org/2000/svg">
<path fill-rule="evenodd" clip-rule="evenodd" d="M26.8516 13.6038C26.8516 14.098 26.4498 14.4997 25.9556 14.4997H25.9449V14.4784C25.4448 14.4784 25.0395 14.0743 25.0383 13.5741V13.5718V10.5591C25.0383 6.94089 23.0591 4.96171 19.4515 4.96171H10.563C6.95301 4.96171 4.96197 6.95275 4.96197 10.5591V19.4477C4.96197 23.0434 6.95301 25.0345 10.5594 25.0345H19.448C23.0544 25.0345 25.0347 23.0434 25.0347 19.4477C25.0347 18.9476 25.4401 18.5411 25.9414 18.5411C26.4427 18.5411 26.848 18.9476 26.848 19.4477C26.8516 24.0164 24.0167 26.8513 19.4515 26.8513H10.5594C5.98356 26.8513 3.1487 24.0164 3.1487 19.4513V10.5627C3.1487 5.9833 5.98356 3.14844 10.5594 3.14844H19.448C23.9954 3.14844 26.8516 5.9833 26.8516 10.5591V13.6038ZM13.5941 16.5565L18.5906 11.5588C18.9379 11.2115 19.5008 11.2115 19.8481 11.5588C20.1953 11.906 20.1953 12.469 19.8481 12.8162L14.2222 18.4421C14.0551 18.608 13.8287 18.7017 13.5941 18.7017C13.357 18.7017 13.1319 18.608 12.9648 18.4421L10.1524 15.6286C9.80517 15.2813 9.80517 14.7184 10.1524 14.3711C10.4997 14.0239 11.0626 14.0239 11.4099 14.3711L13.5941 16.5565Z" fill="white"/>
</svg>
